<svg width="140" height="141" viewBox="0 0 140 141" fill="none" xmlns="http://www.w3.org/2000/svg">
<g clip-path="url(#clip0_2479_7663)">
<path fill-rule="evenodd" clip-rule="evenodd" d="M103.181 6.88735C103.181 10.4095 100.313 13.2752 96.7928 13.2752C93.2724 13.2752 90.405 10.4095 90.405 6.88735C90.405 3.36517 93.2724 0.499512 96.7928 0.499512C100.313 0.499512 103.181 3.36517 103.181 6.88735ZM99.6319 6.88735C99.6319 5.32233 98.3579 4.04831 96.7928 4.04831C95.2278 4.04831 93.9538 5.32233 93.9538 6.88735C93.9538 8.45237 95.2278 9.72638 96.7928 9.72638C98.3579 9.72638 99.6319 8.45237 99.6319 6.88735ZM101.749 45.231L96.4254 52.5061C95.8469 53.2957 96.0191 54.4065 96.8087 54.9849C97.1263 55.2156 97.4918 55.3274 97.8556 55.3274C98.4038 55.3274 98.9415 55.0754 99.2893 54.5999L104.612 47.3248C105.191 46.5352 105.019 45.4245 104.229 44.846C103.434 44.2676 102.323 44.4414 101.749 45.231ZM120.112 66.7918L137.856 94.4724C138.205 95.0207 138.23 95.7127 137.918 96.2805C137.607 96.8518 137.01 97.2049 136.362 97.2049H120.392V138.726C120.392 139.707 119.599 140.5 118.618 140.5H59.353H21.3808C20.4014 140.5 19.6065 139.707 19.6065 138.726V97.2049H3.63687C2.98744 97.2049 2.39124 96.8519 2.08072 96.2823C1.7702 95.7127 1.79504 95.0207 2.1446 94.4724L19.8886 66.7918C19.9397 66.7103 20.0038 66.6418 20.0678 66.5732L20.0891 66.5504C20.093 66.5463 20.0966 66.542 20.1001 66.5376L20.1065 66.5294L20.114 66.5193C20.1243 66.5054 20.1345 66.4916 20.1476 66.4795C20.2914 66.3393 20.4582 66.2311 20.6392 66.1477C20.6706 66.1326 20.7032 66.1207 20.7359 66.1087L20.7651 66.098C20.9603 66.0252 21.1661 65.9738 21.3808 65.9738H59.353H118.62C118.834 65.9738 119.04 66.0252 119.235 66.098C119.25 66.1037 119.263 66.109 119.277 66.1143L119.277 66.1143C119.306 66.1254 119.334 66.1362 119.363 66.1494C119.542 66.2328 119.709 66.3393 119.853 66.4795C119.866 66.4921 119.876 66.5059 119.887 66.5195C119.895 66.5307 119.904 66.5418 119.913 66.5522L119.945 66.5868C120.004 66.6514 120.064 66.7165 120.112 66.7918ZM56.1076 69.5243H22.3514L6.88224 93.6562H40.6384L56.1076 69.5243ZM43.103 96.3887C42.7765 96.8962 42.2141 97.2049 41.609 97.2049H23.1552V136.283L57.5786 119.876V73.806L43.103 96.3887ZM61.1274 136.951H116.843V97.2049H77.0987C76.4937 97.2049 75.9312 96.8962 75.6047 96.3887L61.1274 73.806V136.951ZM62.5983 69.5243L78.0676 93.6562H133.116L117.647 69.5243H62.5983ZM94.3086 123.997H111.52V131.627H94.3086V123.997ZM30.088 38.6611C31.3674 37.3853 33.4842 37.4083 34.9091 38.7143C35.7182 39.4542 35.8743 40.3379 35.8655 40.9465C35.8495 41.8497 35.4716 42.7493 34.8008 43.4821C34.1372 44.2043 34.1869 45.3275 34.9091 45.9893C35.2498 46.3016 35.6792 46.456 36.1068 46.456C36.5877 46.456 37.0667 46.2626 37.4145 45.8811C38.6726 44.5095 39.3823 42.7795 39.4107 41.0086C39.4427 39.1171 38.6956 37.3729 37.3045 36.0988C34.4743 33.5082 30.1998 33.5277 27.5773 36.1521C26.8835 36.8459 26.8835 37.9673 27.5773 38.6611C28.271 39.3549 29.396 39.3531 30.088 38.6611ZM59.4334 20.0179C55.0779 20.0179 51.5472 23.6495 51.5472 28.1294V40.2967C51.5472 44.7766 55.0779 48.4083 59.4334 48.4083H79.1489C83.5043 48.4083 87.0351 44.7766 87.0351 40.2967V28.1294C87.0351 23.6495 83.5043 20.0179 79.1489 20.0179H78.1631V18.2435C78.1631 15.3036 75.7799 12.9203 72.8399 12.9203H65.7424C62.8024 12.9203 60.4192 15.3036 60.4192 18.2435V20.0179H59.4334ZM63.968 20.0179H74.6143V18.2435C74.6143 17.2635 73.8199 16.4691 72.8399 16.4691H65.7424C64.7624 16.4691 63.968 17.2635 63.968 18.2435V20.0179ZM55.4903 28.1294C55.4903 25.8895 57.2557 24.0737 59.4334 24.0737H79.1489C81.3266 24.0737 83.092 25.8895 83.092 28.1294V40.2967C83.092 42.5367 81.3266 44.3525 79.1489 44.3525H59.4334C57.2557 44.3525 55.4903 42.5367 55.4903 40.2967V28.1294ZM69.2911 27.1155C67.9845 27.1155 66.9253 28.1747 66.9253 29.4813V31.8472H64.5594C63.2528 31.8472 62.1936 32.9064 62.1936 34.2131C62.1936 35.5197 63.2528 36.5789 64.5594 36.5789H66.9253V38.9448C66.9253 40.2514 67.9845 41.3107 69.2911 41.3107C70.5978 41.3107 71.657 40.2514 71.657 38.9448V36.5789H74.0229C75.3295 36.5789 76.3887 35.5197 76.3887 34.2131C76.3887 32.9064 75.3295 31.8472 74.0229 31.8472H71.657V29.4813C71.657 28.1747 70.5978 27.1155 69.2911 27.1155Z" fill="#6983E6"/>
</g>
<defs>
<clipPath id="clip0_2479_7663">
<rect width="140" height="140" fill="white" transform="translate(0 0.5)"/>
</clipPath>
</defs>
</svg>